<svg width="20" height="20" viewBox="0 0 20 20" fill="none" xmlns="http://www.w3.org/2000/svg">
<g clip-path="url(#clip0_347_54)">
<path d="M13 10.0004C13 10.796 12.684 11.5591 12.1213 12.1217C11.5587 12.6843 10.7957 13.0004 10 13.0004C9.20438 13.0004 8.44131 12.6843 7.8787 12.1217C7.31609 11.5591 7.00002 10.796 7.00002 10.0004C7.00002 9.82939 7.01802 9.66239 7.04902 9.50039H6.00002V13.4974C6.00002 13.7754 6.22502 14.0004 6.50302 14.0004H13.498C13.6313 14.0001 13.7589 13.947 13.8531 13.8527C13.9472 13.7584 14 13.6306 14 13.4974V9.50039H12.951C12.982 9.66239 13 9.82939 13 10.0004ZM10 12.0004C10.2627 12.0003 10.5229 11.9485 10.7655 11.8479C11.0082 11.7473 11.2287 11.5999 11.4144 11.4141C11.6002 11.2283 11.7475 11.0077 11.8479 10.765C11.9484 10.5223 12.0001 10.2621 12 9.99939C12 9.73668 11.9481 9.47656 11.8476 9.23387C11.747 8.99118 11.5995 8.77069 11.4137 8.58497C11.2279 8.39925 11.0074 8.25195 10.7646 8.15148C10.5219 8.051 10.2617 7.99932 9.99902 7.99939C9.46846 7.99952 8.95968 8.21042 8.5846 8.58568C8.20953 8.96094 7.99889 9.46983 7.99902 10.0004C7.99916 10.531 8.21005 11.0397 8.58531 11.4148C8.96057 11.7899 9.46946 12.0005 10 12.0004ZM12.4 7.90039H13.599C13.6787 7.90039 13.7551 7.86882 13.8115 7.81258C13.8679 7.75635 13.8998 7.68005 13.9 7.60039V6.40139C13.9 6.32156 13.8683 6.245 13.8119 6.18855C13.7554 6.1321 13.6789 6.10039 13.599 6.10039H12.4C12.3202 6.10039 12.2436 6.1321 12.1872 6.18855C12.1307 6.245 12.099 6.32156 12.099 6.40139V7.60039C12.1 7.76539 12.235 7.90039 12.4 7.90039ZM10 0.400391C7.45395 0.400391 5.01215 1.41182 3.2118 3.21217C1.41145 5.01251 0.400024 7.45431 0.400024 10.0004C0.400024 12.5465 1.41145 14.9883 3.2118 16.7886C5.01215 18.589 7.45395 19.6004 10 19.6004C11.2607 19.6004 12.5091 19.3521 13.6738 18.8696C14.8385 18.3872 15.8968 17.6801 16.7882 16.7886C17.6797 15.8972 18.3868 14.8389 18.8693 13.6742C19.3517 12.5094 19.6 11.2611 19.6 10.0004C19.6 8.7397 19.3517 7.49136 18.8693 6.32663C18.3868 5.1619 17.6797 4.10361 16.7882 3.21217C15.8968 2.32072 14.8385 1.61359 13.6738 1.13115C12.5091 0.648702 11.2607 0.400391 10 0.400391ZM15 13.8894C15 14.5004 14.5 15.0004 13.889 15.0004H6.11102C5.50002 15.0004 5.00002 14.5004 5.00002 13.8894V6.11139C5.00002 5.50039 5.50002 5.00039 6.11102 5.00039H13.889C14.5 5.00039 15 5.50039 15 6.11139V13.8894Z" fill="white"/>
</g>
<defs>
<clipPath id="clip0_347_54">
<rect width="20" height="20" fill="white"/>
</clipPath>
</defs>
</svg>
