<svg width="20" height="20" viewBox="0 0 20 20" fill="none" xmlns="http://www.w3.org/2000/svg">
<g clip-path="url(#clip0_347_52)">
<path d="M10 0.400391C4.69802 0.400391 0.400024 4.69839 0.400024 10.0004C0.400024 15.3024 4.69802 19.6004 10 19.6004C15.302 19.6004 19.6 15.3024 19.6 10.0004C19.6 4.69839 15.302 0.400391 10 0.400391ZM7.65002 13.9794H5.70602V7.72339H7.65002V13.9794ZM6.66602 6.95539C6.05202 6.95539 5.65502 6.52039 5.65502 5.98239C5.65502 5.43339 6.06402 5.01139 6.69102 5.01139C7.31802 5.01139 7.70202 5.43339 7.71402 5.98239C7.71402 6.52039 7.31802 6.95539 6.66602 6.95539ZM14.75 13.9794H12.806V10.5124C12.806 9.70539 12.524 9.15739 11.821 9.15739C11.284 9.15739 10.965 9.52839 10.824 9.88539C10.772 10.0124 10.759 10.1924 10.759 10.3714V13.9784H8.81402V9.71839C8.81402 8.93739 8.78902 8.28439 8.76302 7.72239H10.452L10.541 8.59139H10.58C10.836 8.18339 11.463 7.58139 12.512 7.58139C13.791 7.58139 14.75 8.43839 14.75 10.2804V13.9794Z" fill="white"/>
</g>
<defs>
<clipPath id="clip0_347_52">
<rect width="20" height="20" fill="white"/>
</clipPath>
</defs>
</svg>
