<svg width="20" height="20" viewBox="0 0 20 20" fill="none" xmlns="http://www.w3.org/2000/svg">
<g clip-path="url(#clip0_347_50)">
<path d="M10 0.400391C4.69802 0.400391 0.400024 4.69839 0.400024 10.0004C0.400024 15.3024 4.69802 19.6004 10 19.6004C15.302 19.6004 19.6 15.3024 19.6 10.0004C19.6 4.69839 15.302 0.400391 10 0.400391ZM13.905 8.26439C13.909 8.34639 13.91 8.42839 13.91 8.50839C13.91 11.0084 12.009 13.8894 8.53102 13.8894C7.50332 13.8911 6.49699 13.5959 5.63302 13.0394C5.78002 13.0574 5.93102 13.0644 6.08402 13.0644C6.97002 13.0644 7.78502 12.7634 8.43202 12.2554C8.03774 12.2476 7.6557 12.1171 7.33914 11.8819C7.02258 11.6467 6.78727 11.3186 6.66602 10.9434C6.94918 10.9972 7.24087 10.9859 7.51902 10.9104C7.09107 10.8239 6.70622 10.592 6.42973 10.2541C6.15324 9.91614 6.00213 9.493 6.00202 9.05639V9.03339C6.25702 9.17439 6.54902 9.26039 6.85902 9.27039C6.45782 9.00332 6.17381 8.59306 6.06507 8.12352C5.95633 7.65399 6.03108 7.16064 6.27402 6.74439C6.74898 7.32839 7.34128 7.80614 8.01259 8.1467C8.6839 8.48726 9.41925 8.68305 10.171 8.72139C10.0754 8.3157 10.1166 7.8898 10.288 7.5099C10.4595 7.12999 10.7516 6.81738 11.1191 6.62065C11.4865 6.42393 11.9087 6.35411 12.3199 6.42206C12.7311 6.49001 13.1084 6.69192 13.393 6.99639C13.8162 6.91267 14.222 6.75745 14.593 6.53739C14.452 6.97553 14.1567 7.34757 13.762 7.58439C14.1369 7.53924 14.5029 7.43847 14.848 7.28539C14.5945 7.66529 14.2752 7.99683 13.905 8.26439Z" fill="white"/>
</g>
<defs>
<clipPath id="clip0_347_50">
<rect width="20" height="20" fill="white"/>
</clipPath>
</defs>
</svg>
