<svg width="20" height="20" viewBox="0 0 20 20" fill="none" xmlns="http://www.w3.org/2000/svg">
<g clip-path="url(#clip0_347_2)">
<path d="M11.603 9.83339L9.35703 8.78539C9.16103 8.69439 9.00002 8.79639 9.00002 9.01339V10.9874C9.00002 11.2044 9.16103 11.3064 9.35703 11.2154L11.602 10.1674C11.799 10.0754 11.799 9.92539 11.603 9.83339ZM10 0.400391C4.69802 0.400391 0.400024 4.69839 0.400024 10.0004C0.400024 15.3024 4.69802 19.6004 10 19.6004C15.302 19.6004 19.6 15.3024 19.6 10.0004C19.6 4.69839 15.302 0.400391 10 0.400391ZM10 13.9004C5.08602 13.9004 5.00002 13.4574 5.00002 10.0004C5.00002 6.54339 5.08602 6.10039 10 6.10039C14.914 6.10039 15 6.54339 15 10.0004C15 13.4574 14.914 13.9004 10 13.9004Z" fill="white"/>
</g>
<defs>
<clipPath id="clip0_347_2">
<rect width="20" height="20" fill="white"/>
</clipPath>
</defs>
</svg>
