<svg width="38" height="38" viewBox="0 0 38 38" fill="none" xmlns="http://www.w3.org/2000/svg">
<path d="M24.5101 27.2081C21.4562 29.5804 17.613 30.6996 13.763 30.3377C9.91295 29.9758 6.34558 28.1602 3.78725 25.2604C1.22892 22.3606 -0.128004 18.5948 -0.00722569 14.7297C0.113553 10.8645 1.70295 7.19077 4.43734 4.45638C7.17172 1.72199 10.8455 0.132596 14.7106 0.0118173C18.5757 -0.108961 22.3416 1.24796 25.2414 3.80629C28.1411 6.36462 29.9568 9.93199 30.3187 13.782C30.6805 17.6321 29.5614 21.4753 27.1891 24.5291L37.3541 34.6561L34.6561 37.3541L24.5291 27.2081H24.5101ZM15.2001 26.6001C16.6972 26.6001 18.1796 26.3053 19.5627 25.7324C20.9458 25.1595 22.2025 24.3197 23.2611 23.2611C24.3197 22.2026 25.1594 20.9458 25.7323 19.5627C26.3052 18.1796 26.6001 16.6972 26.6001 15.2001C26.6001 13.7031 26.3052 12.2207 25.7323 10.8375C25.1594 9.45443 24.3197 8.1977 23.2611 7.13911C22.2025 6.08052 20.9458 5.24081 19.5627 4.6679C18.1796 4.095 16.6972 3.80013 15.2001 3.80013C12.1766 3.80013 9.27698 5.0012 7.13907 7.13911C5.00115 9.27703 3.80009 12.1767 3.80009 15.2001C3.80009 18.2236 5.00115 21.1232 7.13907 23.2611C9.27698 25.3991 12.1766 26.6001 15.2001 26.6001Z" fill="black"/>
</svg>
